# Blender 4.2.2 LTS
# www.blender.org
mtllib Ventana.mtl
o Cube
v 0.031698 1.100000 -1.500000
v 0.031698 0.900000 -1.500000
v 0.031698 1.100000 1.500000
v 0.031698 0.900000 1.500000
v -1.000000 1.100000 -1.500000
v -1.000000 0.900000 -1.500000
v -1.000000 1.100000 1.500000
v -1.000000 0.900000 1.500000
v -1.000000 0.900000 -1.374737
v -1.000000 0.900000 1.374737
v -1.000000 1.100000 1.374737
v -1.000000 1.100000 -1.374737
v 0.031698 0.900000 1.374737
v 0.031698 0.900000 -1.374737
v -0.062135 0.900000 -1.500000
v -0.062135 1.100000 1.500000
v -0.062135 0.900000 1.500000
v -0.062135 1.100000 -1.500000
v -0.062135 0.900000 -1.374737
v -0.062135 0.900000 1.374737
v -0.062135 1.100000 -1.374737
v -0.062135 1.100000 1.374737
v 0.031698 2.697305 1.374737
v 0.031698 2.697305 1.500000
v -0.062135 2.697305 -1.500000
v 0.031698 2.697305 -1.500000
v 0.031698 2.697305 -1.374737
v -0.062135 2.697305 -1.374737
v -0.062135 2.697305 1.374737
v -0.062135 2.697305 1.500000
v -0.062135 2.583807 1.500000
v -0.062135 1.197607 1.500000
v 0.031698 1.197607 1.500000
v 0.031698 2.583807 1.500000
v -0.062135 1.197607 1.374737
v -0.062135 2.583807 1.374737
v -0.062135 2.583807 -1.374737
v -0.062135 1.197607 -1.374737
v 0.031698 1.197607 -1.500000
v 0.031698 2.583807 -1.500000
v -0.062135 1.197607 -1.500000
v -0.062135 2.583807 -1.500000
v -0.062135 2.583807 -0.004907
v -0.062135 1.890707 1.374737
v -0.062135 1.890707 -1.374737
v -0.062135 1.197607 0.000000
v -0.062135 1.890707 -0.002453
v 0.031698 1.271272 1.317456
v 0.031698 1.271272 0.057626
v 0.031698 1.817041 0.060181
v 0.031698 1.817041 1.317456
v -0.062135 1.271272 -1.317456
v -0.062135 1.271272 -0.057542
v -0.062135 1.817041 -0.059474
v -0.062135 1.817041 -1.317456
v -0.062135 1.964372 -1.317456
v -0.062135 1.964372 -0.059995
v -0.062135 2.510141 -0.061927
v -0.062135 2.510141 -1.317456
v -0.062135 2.510141 0.052635
v -0.062135 1.964372 0.054567
v -0.062135 1.964372 1.317456
v -0.062135 2.510141 1.317456
v -0.062135 1.817041 1.317456
v -0.062135 1.817041 0.055089
v -0.062135 1.271272 0.057021
v -0.062135 1.271272 1.317456
v 0.031698 1.964372 1.317456
v 0.031698 1.964372 0.060870
v 0.031698 2.510141 0.063424
v 0.031698 2.510141 1.317456
v 0.031698 2.510141 -0.051139
v 0.031698 1.964372 -0.053693
v 0.031698 1.964372 -1.317456
v 0.031698 2.510141 -1.317456
v 0.031698 1.817041 -1.317456
v 0.031698 1.817041 -0.054383
v 0.031698 1.271272 -0.056937
v 0.031698 1.271272 -1.317456
v 0.031698 1.964372 0.060870
vn -0.0000 1.0000 -0.0000
vn -0.0000 -0.0000 1.0000
vn -1.0000 -0.0000 -0.0000
vn -0.0000 -1.0000 -0.0000
vn -0.0000 -0.0000 -1.0000
vn 0.1142 -0.0035 -0.9934
vn -0.0670 0.0035 0.9977
vn -0.0065 -0.0047 1.0000
vn 0.0064 0.0047 -1.0000
vn -0.1142 -0.0046 0.9934
vn 0.0542 -0.0035 -0.9985
vn 0.0670 0.0047 -0.9977
vn -0.0542 0.0035 0.9985
vt 0.629571 0.014872
vt 0.521107 0.014872
vt 0.629571 0.000000
vt 0.010851 0.680990
vt 0.010851 0.657244
vt 0.119305 0.680990
vt 0.761233 0.014872
vt 0.738103 0.014872
vt 0.761233 0.000000
vt 0.304111 0.014872
vt 0.293260 0.000000
vt 0.304111 0.000000
vt 0.336291 0.680990
vt 0.336291 0.657244
vt 0.347141 0.680990
vt 0.304111 0.356181
vt 0.293260 0.356181
vt 0.293260 0.341309
vt 0.304111 0.341309
vt 0.293260 0.014872
vt 0.761233 0.356181
vt 0.738103 0.356181
vt 0.761233 0.341309
vt 0.738103 0.341309
vt 0.629571 0.356181
vt 0.521107 0.356181
vt 0.629571 0.341309
vt 0.521107 0.341309
vt 0.013126 0.014872
vt 0.000000 0.341309
vt 0.000000 0.014872
vt 0.412575 0.341309
vt 0.412575 0.014872
vt 0.412575 0.356181
vt 0.227837 0.680990
vt 0.227837 0.657244
vt 0.000000 0.680990
vt 0.000000 0.657244
vt 0.010851 0.481077
vt 0.000000 0.467601
vt 0.010851 0.467601
vt 0.466525 0.808910
vt 0.455674 0.808910
vt 0.455674 0.482473
vt 0.466525 0.823782
vt 0.466525 0.482473
vt 0.455674 0.467601
vt 0.466525 0.467601
vt 0.013126 0.341309
vt 0.013126 0.356181
vt 0.000000 0.356181
vt 0.347141 0.481077
vt 0.336291 0.481077
vt 0.336291 0.467601
vt 0.013126 0.000000
vt 0.000000 0.000000
vt 0.184727 0.000000
vt 0.184727 0.014872
vt 0.173439 0.000000
vt 0.173439 0.014872
vt 0.347141 0.657244
vt 0.336291 0.645656
vt 0.347141 0.645656
vt 0.184727 0.341309
vt 0.184727 0.356181
vt 0.173439 0.356181
vt 0.173439 0.341309
vt 0.093283 0.341309
vt 0.000000 0.645656
vt 0.010851 0.645656
vt 0.000000 0.481077
vt 0.173439 0.178090
vt 0.164920 0.171259
vt 0.164920 0.021673
vt 0.101802 0.171029
vt 0.093283 0.177799
vt 0.093283 0.014872
vt 0.101802 0.021673
vt 0.084763 0.170967
vt 0.084763 0.021673
vt 0.013126 0.177508
vt 0.021645 0.170738
vt 0.021645 0.021673
vt 0.021645 0.184340
vt 0.084763 0.184569
vt 0.021645 0.334508
vt 0.084763 0.334508
vt 0.101802 0.184631
vt 0.101802 0.334508
vt 0.164920 0.334508
vt 0.813826 0.617644
vt 0.813826 0.468349
vt 0.824678 0.617644
vt 0.944061 0.884835
vt 0.933210 0.884835
vt 0.933210 0.820037
vt 0.585910 0.468882
vt 0.585910 0.617947
vt 0.575058 0.467601
vt 0.119386 0.857208
vt 0.119384 0.792410
vt 0.130252 0.792410
vt 0.705294 0.467601
vt 0.694442 0.616489
vt 0.694442 0.467601
vt 0.249649 0.857208
vt 0.238789 0.857208
vt 0.249652 0.792410
vt 0.694442 0.879129
vt 0.705294 0.729190
vt 0.705294 0.878381
vt 0.933210 0.643819
vt 0.944061 0.643819
vt 0.933210 0.708617
vt 0.466524 0.935203
vt 0.455674 1.000000
vt 0.455674 0.935203
vt 0.010852 0.941986
vt 0.000000 0.942058
vt 0.010852 0.792410
vt 0.575058 0.729368
vt 0.585910 0.729368
vt 0.585910 0.879245
vt 0.869769 0.325876
vt 0.869765 0.261078
vt 0.880621 0.325875
vt 0.933213 0.532399
vt 0.944069 0.467601
vt 0.944064 0.532399
vt 0.869765 0.000072
vt 0.880617 0.000000
vt 0.880617 0.149658
vt 1.000000 0.064797
vt 0.989149 0.064797
vt 1.000000 0.000000
vt 0.824678 0.879025
vt 0.813826 0.879025
vt 0.824678 0.729669
vt 0.738103 0.000000
vt 0.164920 0.184860
vt 0.521107 0.000000
vt 0.455674 0.823782
vt 0.119305 0.657244
vt 0.347141 0.467601
vt 0.944061 0.820037
vt 0.869765 0.149658
vt 0.989149 0.000000
vt 0.000000 0.792410
vt 0.466524 1.000000
vt 0.238784 0.792410
vt 0.813826 0.729064
vt 0.944061 0.708617
vt 0.824678 0.467601
vt 0.575058 0.878640
vt 0.575058 0.617947
vt 0.933210 0.467601
vt 0.694442 0.729190
vt 0.130247 0.857208
vt 0.705294 0.617770
vt 0.880624 0.261078
vt 0.412575 0.000000
s 1
usemtl Material
f 22/1/1 11/2/1 16/3/1
f 17/4/2 16/5/2 8/6/2
f 9/7/3 12/8/3 6/9/3
f 20/10/4 4/11/4 17/12/4
f 15/13/5 18/14/5 2/15/5
f 15/16/4 2/17/4 14/18/4
f 19/19/4 13/20/4 20/10/4
f 8/21/3 7/22/3 10/23/3
f 10/23/3 11/24/3 9/7/3
f 18/25/1 5/26/1 21/27/1
f 21/27/1 12/28/1 11/2/1
f 37/29/3 29/30/3 28/31/3
f 9/32/4 19/19/4 10/33/4
f 6/34/4 19/19/4 9/32/4
f 6/35/5 5/36/5 15/13/5
f 10/33/4 20/10/4 17/12/4
f 4/37/2 3/38/2 17/4/2
f 31/39/2 24/40/2 30/41/2
f 27/42/1 28/43/1 29/44/1
f 26/45/1 28/43/1 27/42/1
f 23/46/1 30/47/1 24/48/1
f 36/49/3 31/50/3 30/51/3
f 40/52/5 42/53/5 25/54/5
f 42/55/3 37/29/3 25/56/3
f 18/57/3 21/58/3 41/59/3
f 41/59/3 38/60/3 42/55/3
f 1/61/5 41/62/5 39/63/5
f 39/63/5 41/62/5 42/53/5
f 22/64/3 16/65/3 32/66/3
f 35/67/3 31/50/3 36/49/3 44/68/3
f 16/5/2 3/38/2 33/69/2
f 32/70/2 33/69/2 34/71/2
f 21/58/3 35/67/3 46/72/3 38/60/3
f 38/60/3 53/73/3 52/74/3
f 46/72/3 54/75/3 53/73/3
f 47/76/3 45/77/3 54/75/3
f 45/77/3 38/60/3 55/78/3
f 45/77/3 57/79/3 56/80/3
f 47/76/3 43/81/3 58/82/3 57/79/3
f 43/81/3 37/29/3 58/82/3
f 37/29/3 45/77/3 59/83/3
f 43/81/3 47/76/3 60/84/3
f 47/76/3 44/68/3 61/85/3
f 44/68/3 63/86/3 62/87/3
f 36/49/3 43/81/3 60/84/3
f 44/68/3 65/88/3 64/89/3
f 47/76/3 46/72/3 65/88/3
f 46/72/3 35/67/3 67/90/3
f 35/67/3 44/68/3 64/89/3 67/90/3
f 56/91/1 57/92/1 74/93/1
f 56/94/2 74/95/2 75/96/2
f 58/97/4 59/98/4 72/99/4
f 57/100/6 58/101/6 72/102/6
f 63/103/4 70/104/4 71/105/4
f 61/106/7 69/107/7 80/107/7 60/108/7
f 61/109/1 68/110/1 69/111/1
f 63/112/5 71/113/5 62/114/5
f 51/115/5 67/116/5 64/117/5
f 49/118/1 66/119/1 48/120/1
f 51/121/4 64/122/4 65/123/4
f 49/124/8 50/125/8 66/126/8
f 53/127/9 77/128/9 78/129/9
f 53/130/1 78/131/1 79/132/1
f 52/133/2 79/134/2 55/135/2
f 55/136/4 76/137/4 54/138/4
f 35/67/3 21/58/3 22/64/3
f 32/66/3 35/67/3 22/64/3
f 11/2/1 22/1/1 21/27/1
f 6/9/3 12/8/3 5/139/3
f 10/23/3 7/22/3 11/24/3
f 9/7/3 11/24/3 12/8/3
f 57/79/3 45/77/3 47/76/3
f 63/86/3 44/68/3 36/49/3
f 61/85/3 44/68/3 62/87/3
f 55/78/3 38/60/3 52/74/3
f 60/84/3 47/76/3 61/85/3
f 65/88/3 46/72/3 66/140/3
f 54/75/3 46/72/3 47/76/3
f 58/82/3 37/29/3 59/83/3
f 60/84/3 63/86/3 36/49/3
f 59/83/3 45/77/3 56/80/3
f 29/44/1 23/46/1 27/42/1
f 16/3/1 11/2/1 7/141/1
f 28/43/1 26/45/1 25/142/1
f 8/6/2 16/5/2 7/143/2
f 30/47/1 23/46/1 29/44/1
f 30/51/3 29/30/3 36/49/3
f 25/54/5 26/144/5 40/52/5
f 2/15/5 18/14/5 1/61/5
f 25/56/3 37/29/3 28/31/3
f 41/59/3 21/58/3 38/60/3
f 42/55/3 38/60/3 45/77/3 37/29/3
f 41/62/5 1/61/5 18/14/5
f 42/53/5 40/52/5 39/63/5
f 21/27/1 5/26/1 12/28/1
f 31/50/3 35/67/3 32/66/3
f 29/30/3 37/29/3 43/81/3 36/49/3
f 33/69/2 32/70/2 16/5/2
f 34/71/2 31/39/2 32/70/2
f 15/13/5 5/36/5 18/14/5
f 17/4/2 3/38/2 16/5/2
f 24/40/2 31/39/2 34/71/2
f 53/73/3 38/60/3 46/72/3
f 67/90/3 66/140/3 46/72/3
f 65/88/3 44/68/3 47/76/3
f 54/75/3 45/77/3 55/78/3
f 75/96/2 59/145/2 56/94/2
f 79/132/1 52/146/1 53/130/1
f 55/135/2 79/134/2 76/147/2
f 48/120/1 66/119/1 67/148/1
f 67/116/5 51/115/5 48/149/5
f 60/108/10 80/107/10 70/150/10
f 54/138/4 76/137/4 77/151/4
f 62/114/5 71/113/5 68/152/5
f 74/93/1 57/92/1 73/153/1
f 65/123/4 50/154/4 51/121/4
f 72/99/4 59/98/4 75/155/4
f 77/128/11 53/127/11 54/156/11
f 68/110/1 61/109/1 62/157/1
f 72/102/12 73/158/12 57/100/12
f 70/104/4 63/103/4 60/159/4
f 19/19/4 6/34/4 15/16/4
f 14/18/4 19/19/4 15/16/4
f 66/126/13 50/125/13 65/160/13
f 17/12/4 8/161/4 10/33/4
f 13/20/4 19/19/4 14/18/4
f 10/33/4 19/19/4 20/10/4
f 4/11/4 20/10/4 13/20/4
