{
    "asset" : {
        "generator" : "Khronos glTF Blender I/O v1.3.48",
        "version" : "2.0"
    },
    "scene" : 0,
    "scenes" : [
        {
            "name" : "Scene",
            "nodes" : [
                0
            ]
        }
    ],
    "nodes" : [
        {
            "mesh" : 0,
            "name" : "majora mask"
        }
    ],
    "materials" : [
        {
            "doubleSided" : true,
            "name" : "mascara base",
            "pbrMetallicRoughness" : {}
        },
        {
            "doubleSided" : true,
            "emissiveFactor" : [
                0,
                0,
                0
            ],
            "name" : "cuerno 1",
            "pbrMetallicRoughness" : {
                "baseColorFactor" : [
                    0.800000011920929,
                    0.800000011920929,
                    0.800000011920929,
                    1
                ],
                "metallicFactor" : 0,
                "roughnessFactor" : 0.5
            }
        },
        {
            "doubleSided" : true,
            "emissiveFactor" : [
                0,
                0,
                0
            ],
            "name" : "cuerno 2",
            "pbrMetallicRoughness" : {
                "baseColorFactor" : [
                    0.800000011920929,
                    0.800000011920929,
                    0.800000011920929,
                    1
                ],
                "metallicFactor" : 0,
                "roughnessFactor" : 0.5
            }
        },
        {
            "doubleSided" : true,
            "emissiveFactor" : [
                0,
                0,
                0
            ],
            "name" : "cuerno 3",
            "pbrMetallicRoughness" : {
                "baseColorFactor" : [
                    0.800000011920929,
                    0.800000011920929,
                    0.800000011920929,
                    1
                ],
                "metallicFactor" : 0,
                "roughnessFactor" : 0.5
            }
        },
        {
            "doubleSided" : true,
            "emissiveFactor" : [
                0,
                0,
                0
            ],
            "name" : "cuerno 4",
            "pbrMetallicRoughness" : {
                "baseColorFactor" : [
                    0.800000011920929,
                    0.800000011920929,
                    0.800000011920929,
                    1
                ],
                "metallicFactor" : 0,
                "roughnessFactor" : 0.5
            }
        },
        {
            "doubleSided" : true,
            "emissiveFactor" : [
                0,
                0,
                0
            ],
            "name" : "cuerno 5",
            "pbrMetallicRoughness" : {
                "baseColorFactor" : [
                    0.800000011920929,
                    0.800000011920929,
                    0.800000011920929,
                    1
                ],
                "metallicFactor" : 0,
                "roughnessFactor" : 0.5
            }
        },
        {
            "doubleSided" : true,
            "emissiveFactor" : [
                0,
                0,
                0
            ],
            "name" : "ojos",
            "pbrMetallicRoughness" : {
                "baseColorFactor" : [
                    0.800000011920929,
                    0.800000011920929,
                    0.800000011920929,
                    1
                ],
                "metallicFactor" : 0,
                "roughnessFactor" : 0.5
            }
        }
    ],
    "meshes" : [
        {
            "name" : "Cube.001",
            "primitives" : [
                {
                    "attributes" : {
                        "POSITION" : 0,
                        "NORMAL" : 1,
                        "TEXCOORD_0" : 2
                    },
                    "indices" : 3,
                    "material" : 0
                },
                {
                    "attributes" : {
                        "POSITION" : 4,
                        "NORMAL" : 5,
                        "TEXCOORD_0" : 6
                    },
                    "indices" : 7,
                    "material" : 1
                },
                {
                    "attributes" : {
                        "POSITION" : 8,
                        "NORMAL" : 9,
                        "TEXCOORD_0" : 10
                    },
                    "indices" : 7,
                    "material" : 2
                },
                {
                    "attributes" : {
                        "POSITION" : 11,
                        "NORMAL" : 12,
                        "TEXCOORD_0" : 13
                    },
                    "indices" : 7,
                    "material" : 3
                },
                {
                    "attributes" : {
                        "POSITION" : 14,
                        "NORMAL" : 15,
                        "TEXCOORD_0" : 16
                    },
                    "indices" : 7,
                    "material" : 4
                },
                {
                    "attributes" : {
                        "POSITION" : 17,
                        "NORMAL" : 18,
                        "TEXCOORD_0" : 19
                    },
                    "indices" : 7,
                    "material" : 5
                },
                {
                    "attributes" : {
                        "POSITION" : 20,
                        "NORMAL" : 21,
                        "TEXCOORD_0" : 22
                    },
                    "indices" : 23,
                    "material" : 6
                }
            ]
        }
    ],
    "accessors" : [
        {
            "bufferView" : 0,
            "componentType" : 5126,
            "count" : 592,
            "max" : [
                1.9897342920303345,
                1.330774188041687,
                1.313768982887268
            ],
            "min" : [
                -1.9897342920303345,
                -2.4697141647338867,
                0.0844220370054245
            ],
            "type" : "VEC3"
        },
        {
            "bufferView" : 1,
            "componentType" : 5126,
            "count" : 592,
            "type" : "VEC3"
        },
        {
            "bufferView" : 2,
            "componentType" : 5126,
            "count" : 592,
            "type" : "VEC2"
        },
        {
            "bufferView" : 3,
            "componentType" : 5123,
            "count" : 888,
            "type" : "SCALAR"
        },
        {
            "bufferView" : 4,
            "componentType" : 5126,
            "count" : 72,
            "max" : [
                1.2364537715911865,
                2.3681938648223877,
                1.4137251377105713
            ],
            "min" : [
                -1.2364537715911865,
                0.8226279616355896,
                0.3923294246196747
            ],
            "type" : "VEC3"
        },
        {
            "bufferView" : 5,
            "componentType" : 5126,
            "count" : 72,
            "type" : "VEC3"
        },
        {
            "bufferView" : 6,
            "componentType" : 5126,
            "count" : 72,
            "type" : "VEC2"
        },
        {
            "bufferView" : 7,
            "componentType" : 5123,
            "count" : 72,
            "type" : "SCALAR"
        },
        {
            "bufferView" : 8,
            "componentType" : 5126,
            "count" : 72,
            "max" : [
                2.7574336528778076,
                -0.031808674335479736,
                1.1100459098815918
            ],
            "min" : [
                -2.7574336528778076,
                -0.7666918039321899,
                0.1937197744846344
            ],
            "type" : "VEC3"
        },
        {
            "bufferView" : 9,
            "componentType" : 5126,
            "count" : 72,
            "type" : "VEC3"
        },
        {
            "bufferView" : 10,
            "componentType" : 5126,
            "count" : 72,
            "type" : "VEC2"
        },
        {
            "bufferView" : 11,
            "componentType" : 5126,
            "count" : 72,
            "max" : [
                2.224426507949829,
                -0.6126413345336914,
                1.2712254524230957
            ],
            "min" : [
                -2.224426507949829,
                -1.5958020687103271,
                0.3548993468284607
            ],
            "type" : "VEC3"
        },
        {
            "bufferView" : 12,
            "componentType" : 5126,
            "count" : 72,
            "type" : "VEC3"
        },
        {
            "bufferView" : 13,
            "componentType" : 5126,
            "count" : 72,
            "type" : "VEC2"
        },
        {
            "bufferView" : 14,
            "componentType" : 5126,
            "count" : 72,
            "max" : [
                1.7300678491592407,
                -1.0181652307510376,
                1.2712254524230957
            ],
            "min" : [
                -1.7300678491592407,
                -2.1173667907714844,
                0.3548993468284607
            ],
            "type" : "VEC3"
        },
        {
            "bufferView" : 15,
            "componentType" : 5126,
            "count" : 72,
            "type" : "VEC3"
        },
        {
            "bufferView" : 16,
            "componentType" : 5126,
            "count" : 72,
            "type" : "VEC2"
        },
        {
            "bufferView" : 17,
            "componentType" : 5126,
            "count" : 72,
            "max" : [
                0.8537009954452515,
                -1.4032472372055054,
                1.2909144163131714
            ],
            "min" : [
                -0.8537009954452515,
                -2.696990489959717,
                0.3745883107185364
            ],
            "type" : "VEC3"
        },
        {
            "bufferView" : 18,
            "componentType" : 5126,
            "count" : 72,
            "type" : "VEC3"
        },
        {
            "bufferView" : 19,
            "componentType" : 5126,
            "count" : 72,
            "type" : "VEC2"
        },
        {
            "bufferView" : 20,
            "componentType" : 5126,
            "count" : 744,
            "max" : [
                1.4532146453857422,
                0.3420606255531311,
                1.5237383842468262
            ],
            "min" : [
                -1.4532146453857422,
                -0.726833701133728,
                0.7749887704849243
            ],
            "type" : "VEC3"
        },
        {
            "bufferView" : 21,
            "componentType" : 5126,
            "count" : 744,
            "type" : "VEC3"
        },
        {
            "bufferView" : 22,
            "componentType" : 5126,
            "count" : 744,
            "type" : "VEC2"
        },
        {
            "bufferView" : 23,
            "componentType" : 5123,
            "count" : 1080,
            "type" : "SCALAR"
        }
    ],
    "bufferViews" : [
        {
            "buffer" : 0,
            "byteLength" : 7104,
            "byteOffset" : 0
        },
        {
            "buffer" : 0,
            "byteLength" : 7104,
            "byteOffset" : 7104
        },
        {
            "buffer" : 0,
            "byteLength" : 4736,
            "byteOffset" : 14208
        },
        {
            "buffer" : 0,
            "byteLength" : 1776,
            "byteOffset" : 18944
        },
        {
            "buffer" : 0,
            "byteLength" : 864,
            "byteOffset" : 20720
        },
        {
            "buffer" : 0,
            "byteLength" : 864,
            "byteOffset" : 21584
        },
        {
            "buffer" : 0,
            "byteLength" : 576,
            "byteOffset" : 22448
        },
        {
            "buffer" : 0,
            "byteLength" : 144,
            "byteOffset" : 23024
        },
        {
            "buffer" : 0,
            "byteLength" : 864,
            "byteOffset" : 23168
        },
        {
            "buffer" : 0,
            "byteLength" : 864,
            "byteOffset" : 24032
        },
        {
            "buffer" : 0,
            "byteLength" : 576,
            "byteOffset" : 24896
        },
        {
            "buffer" : 0,
            "byteLength" : 864,
            "byteOffset" : 25472
        },
        {
            "buffer" : 0,
            "byteLength" : 864,
            "byteOffset" : 26336
        },
        {
            "buffer" : 0,
            "byteLength" : 576,
            "byteOffset" : 27200
        },
        {
            "buffer" : 0,
            "byteLength" : 864,
            "byteOffset" : 27776
        },
        {
            "buffer" : 0,
            "byteLength" : 864,
            "byteOffset" : 28640
        },
        {
            "buffer" : 0,
            "byteLength" : 576,
            "byteOffset" : 29504
        },
        {
            "buffer" : 0,
            "byteLength" : 864,
            "byteOffset" : 30080
        },
        {
            "buffer" : 0,
            "byteLength" : 864,
            "byteOffset" : 30944
        },
        {
            "buffer" : 0,
            "byteLength" : 576,
            "byteOffset" : 31808
        },
        {
            "buffer" : 0,
            "byteLength" : 8928,
            "byteOffset" : 32384
        },
        {
            "buffer" : 0,
            "byteLength" : 8928,
            "byteOffset" : 41312
        },
        {
            "buffer" : 0,
            "byteLength" : 5952,
            "byteOffset" : 50240
        },
        {
            "buffer" : 0,
            "byteLength" : 2160,
            "byteOffset" : 56192
        }
    ],
    "buffers" : [
        {
            "byteLength" : 58352,
            "uri" : "data:application/octet-stream;base64,"
        }
    ]
}
