# Blender v2.90.1 OBJ File: 'mostrador.blend'
# www.blender.org
mtllib mostrador.mtl
o mostrador_Cube.001
v -1.939039 -0.052814 5.000000
v -1.939039 -0.052814 -5.000000
v 1.939039 -0.052814 5.000000
v 1.939039 -0.052814 -5.000000
v -1.939039 4.569759 5.000000
v -1.939039 4.569759 -5.000000
v 1.939039 4.569759 -5.000000
v 1.939039 4.569759 5.000000
v 2.724153 4.569759 -5.000000
v 2.724153 4.569759 5.000000
v -1.791416 4.919392 4.852377
v -1.939039 4.771769 5.000000
v -1.791416 4.919392 -4.852377
v -1.939039 4.771769 -5.000000
v 1.939039 4.771769 5.000000
v 1.939039 4.919392 4.852377
v 1.939039 4.919392 -4.852377
v 1.939039 4.771769 -5.000000
v 2.576530 4.919392 -4.852377
v 2.724153 4.771769 -5.000000
v 2.576530 4.919392 4.852377
v 2.724153 4.771769 5.000000
vt 0.660817 0.018054
vt 0.975939 0.018054
vt 0.975939 0.614101
vt 0.660817 0.614101
vt 0.606966 0.614101
vt 0.606966 0.018054
vt 0.642641 0.660373
vt 0.634560 0.659109
vt 0.645836 0.628655
vt 0.650687 0.635777
vt 0.664318 0.785159
vt 0.669348 0.779670
vt 0.917305 0.775620
vt 0.922140 0.781813
vt 0.976730 0.792241
vt 0.976730 0.931047
vt 0.618805 0.931047
vt 0.618805 0.792241
vt 0.941472 0.664426
vt 0.949134 0.663981
vt 0.297944 0.518043
vt 0.571467 0.518042
vt 0.571467 0.963015
vt 0.297944 0.963015
vt 0.297944 0.038050
vt 0.571467 0.038050
vt 0.571467 0.495166
vt 0.297944 0.495166
vt 0.011053 0.517961
vt 0.284576 0.517961
vt 0.284576 0.962934
vt 0.011053 0.962934
vt 0.011053 0.042466
vt 0.284576 0.042466
vt 0.284576 0.499581
vt 0.011053 0.499581
vt 0.976729 0.965687
vt 0.618805 0.965687
vt 0.618805 0.937585
vt 0.976729 0.937585
vt 0.934183 0.641112
vt 0.939525 0.635180
vt 0.674204 0.773859
vt 0.912402 0.769443
vt 0.934356 0.664947
vt 0.650211 0.661032
vt 0.929881 0.647097
vt 0.655219 0.642655
vn -0.0000 0.9239 -0.3827
vn -0.2706 0.9239 -0.2706
vn -0.2706 0.9239 0.2706
vn -0.0000 0.9239 0.3827
vn 0.2706 0.9239 0.2706
vn 0.2706 0.9239 -0.2706
vn 0.0000 0.3827 0.9239
vn 0.3015 -0.3015 0.9045
vn 0.5774 -0.5773 0.5774
vn 0.6101 0.5055 0.6101
vn -0.7071 0.0000 0.7071
vn -0.6101 0.5055 0.6101
vn -0.6101 0.5055 -0.6101
vn -0.7071 0.0002 -0.7071
vn -0.5773 -0.5774 -0.5774
vn 0.5774 -0.5774 -0.5773
vn 0.5773 -0.5774 0.5774
vn -0.5774 -0.5774 0.5773
vn -0.7071 0.0000 -0.7071
vn -0.0000 0.3827 -0.9239
vn 0.3015 -0.3015 -0.9045
vn -0.5773 -0.5774 0.5774
vn 0.5774 -0.5773 -0.5774
vn 0.5774 -0.5774 0.5773
vn -0.5774 -0.5773 -0.5774
vn -0.7071 -0.0002 -0.7071
vn 0.5773 -0.5774 -0.5774
vn -0.5774 -0.5773 0.5774
vn -0.7071 -0.0002 0.7071
vn -0.5774 -0.5774 -0.5773
vn 0.6101 0.5055 -0.6101
vn -0.7071 0.0002 0.7071
usemtl mostrador
s off
f 17/1/1 13/2/2 11/3/3 16/4/4
f 17/1/1 16/4/4 21/5/5 19/6/6
f 15/7/7 8/8/8 10/9/9 22/10/10
f 5/11/11 12/12/12 14/13/13 6/14/14
f 2/15/15 4/16/16 3/17/17 1/18/18
f 6/14/19 14/13/13 18/19/20 7/20/21
f 3/21/9 8/22/8 5/23/11 1/24/22
f 4/25/23 7/26/21 8/27/8 3/28/24
f 2/29/25 6/30/26 7/31/21 4/32/27
f 1/33/28 5/34/29 6/35/19 2/36/30
f 8/37/8 7/38/21 9/39/16 10/40/17
f 7/20/21 18/19/20 20/41/31 9/42/27
f 9/42/23 20/41/31 22/10/10 10/9/24
f 11/43/3 13/44/2 14/13/13 12/12/12
f 13/44/2 17/45/1 18/19/20 14/13/13
f 16/46/4 11/43/3 12/12/12 15/7/7
f 19/47/6 21/48/5 22/10/10 20/41/31
f 15/7/7 22/10/10 21/48/5 16/46/4
f 20/41/31 18/19/20 17/45/1 19/47/6
f 8/8/8 15/7/7 12/12/12 5/11/32
