{
    "asset" : {
        "generator" : "Khronos glTF Blender I/O v1.3.48",
        "version" : "2.0"
    },
    "scene" : 0,
    "scenes" : [
        {
            "name" : "Scene",
            "nodes" : [
                0
            ]
        }
    ],
    "nodes" : [
        {
            "mesh" : 0,
            "name" : "telefono"
        }
    ],
    "materials" : [
        {
            "doubleSided" : true,
            "emissiveFactor" : [
                0,
                0,
                0
            ],
            "name" : "telefono",
            "pbrMetallicRoughness" : {
                "baseColorFactor" : [
                    0.800000011920929,
                    0.800000011920929,
                    0.800000011920929,
                    1
                ],
                "metallicFactor" : 0,
                "roughnessFactor" : 0.5
            }
        },
        {
            "doubleSided" : true,
            "emissiveFactor" : [
                0,
                0,
                0
            ],
            "name" : "base telefono",
            "pbrMetallicRoughness" : {
                "baseColorFactor" : [
                    0.800000011920929,
                    0.800000011920929,
                    0.800000011920929,
                    1
                ],
                "metallicFactor" : 0,
                "roughnessFactor" : 0.5
            }
        }
    ],
    "meshes" : [
        {
            "name" : "Cylinder.001",
            "primitives" : [
                {
                    "attributes" : {
                        "POSITION" : 0,
                        "NORMAL" : 1,
                        "TEXCOORD_0" : 2
                    },
                    "indices" : 3,
                    "material" : 0
                },
                {
                    "attributes" : {
                        "POSITION" : 4,
                        "NORMAL" : 5,
                        "TEXCOORD_0" : 6
                    },
                    "indices" : 7,
                    "material" : 1
                }
            ]
        }
    ],
    "accessors" : [
        {
            "bufferView" : 0,
            "componentType" : 5126,
            "count" : 1076,
            "max" : [
                3.8661904335021973,
                2.3007397651672363,
                -0.4249532222747803
            ],
            "min" : [
                -3.8661904335021973,
                -0.528448224067688,
                -2.6748745441436768
            ],
            "type" : "VEC3"
        },
        {
            "bufferView" : 1,
            "componentType" : 5126,
            "count" : 1076,
            "type" : "VEC3"
        },
        {
            "bufferView" : 2,
            "componentType" : 5126,
            "count" : 1076,
            "type" : "VEC2"
        },
        {
            "bufferView" : 3,
            "componentType" : 5123,
            "count" : 1644,
            "type" : "SCALAR"
        },
        {
            "bufferView" : 4,
            "componentType" : 5126,
            "count" : 520,
            "max" : [
                2.3244292736053467,
                1.928133487701416,
                2.764055013656616
            ],
            "min" : [
                -2.3244292736053467,
                -3.1230039596557617,
                -2.888363838195801
            ],
            "type" : "VEC3"
        },
        {
            "bufferView" : 5,
            "componentType" : 5126,
            "count" : 520,
            "type" : "VEC3"
        },
        {
            "bufferView" : 6,
            "componentType" : 5126,
            "count" : 520,
            "type" : "VEC2"
        },
        {
            "bufferView" : 7,
            "componentType" : 5123,
            "count" : 876,
            "type" : "SCALAR"
        }
    ],
    "bufferViews" : [
        {
            "buffer" : 0,
            "byteLength" : 12912,
            "byteOffset" : 0
        },
        {
            "buffer" : 0,
            "byteLength" : 12912,
            "byteOffset" : 12912
        },
        {
            "buffer" : 0,
            "byteLength" : 8608,
            "byteOffset" : 25824
        },
        {
            "buffer" : 0,
            "byteLength" : 3288,
            "byteOffset" : 34432
        },
        {
            "buffer" : 0,
            "byteLength" : 6240,
            "byteOffset" : 37720
        },
        {
            "buffer" : 0,
            "byteLength" : 6240,
            "byteOffset" : 43960
        },
        {
            "buffer" : 0,
            "byteLength" : 4160,
            "byteOffset" : 50200
        },
        {
            "buffer" : 0,
            "byteLength" : 1752,
            "byteOffset" : 54360
        }
    ],
    "buffers" : [
        {
            "byteLength" : 56112,
            "uri" : "data:application/octet-stream;base64,"
        }
    ]
}
