# Blender v2.90.1 OBJ File: ''
# www.blender.org
mtllib jokerp5.mtl
o jokermask_Cube.001
v 0.449123 -0.696561 0.744429
v 0.449123 0.842492 0.691069
v 0.464051 -0.696561 0.881481
v 0.464051 0.842492 0.828121
v 0.778020 -0.511544 0.546459
v 0.778020 0.983104 0.541057
v 0.792948 -0.511544 0.683512
v 0.792948 0.983104 0.678110
v 1.055755 -0.481942 0.451969
v 1.055755 1.086714 0.463839
v 1.070684 -0.481942 0.551507
v 1.070684 1.086714 0.600891
v 1.406579 -0.570749 0.401518
v 1.406579 1.205124 0.401518
v 1.421507 -0.570749 0.538570
v 1.421507 1.205124 0.538570
v 1.983977 -0.215518 0.347682
v 1.983977 1.382740 0.302664
v 1.998905 -0.215518 0.439716
v 1.998905 1.382740 0.439716
v 2.415197 0.228522 0.155467
v 2.415197 1.523353 0.155467
v 2.430125 0.228522 0.292519
v 2.430125 1.523353 0.292519
v 2.890271 0.975989 -0.041259
v 2.890271 1.649164 -0.041259
v 2.905199 0.975989 0.095793
v 2.905199 1.649164 0.095793
v 3.094918 1.479233 -0.162254
v 3.189933 1.730571 -0.221901
v 3.109847 1.479233 -0.025202
v 3.204861 1.730571 -0.084849
v 1.713550 -0.393134 0.387129
v 1.713550 1.293932 0.364620
v 1.728479 -0.393134 0.501673
v 1.728479 1.293932 0.501673
v 1.998905 0.797425 0.439716
v 1.421507 0.645689 0.538570
v 1.421507 0.139902 0.538570
v 1.728479 0.708407 0.501673
v 1.728479 0.277476 0.501673
v 1.406579 0.140475 0.401518
v 1.070684 0.504069 0.558832
v 1.055755 0.487454 0.436233
v 0.774381 0.111368 0.546255
v 0.774381 0.111368 0.692294
v 1.052375 0.154064 0.442333
v 1.052375 0.154064 0.565274
v 1.983977 0.803697 0.320454
v 1.713550 0.276869 0.377937
v 1.713550 0.721152 0.372814
v 1.406579 0.633753 0.401518
v 0.000000 -1.185004 1.251919
v 0.000000 0.679677 0.937760
v 0.000000 -1.185004 1.388971
v 0.000000 0.679677 1.074812
v -0.449123 -0.696561 0.744429
v -0.449123 0.842492 0.691069
v -0.464051 -0.696561 0.881481
v -0.464051 0.842492 0.828121
v -0.778020 -0.511544 0.546459
v -0.778020 0.983104 0.541057
v -0.792948 -0.511544 0.683512
v -0.792948 0.983104 0.678110
v -1.055755 -0.481942 0.451969
v -1.055755 1.086714 0.463839
v -1.070684 -0.481942 0.551507
v -1.070684 1.086714 0.600891
v -1.406579 -0.570749 0.401518
v -1.406579 1.205124 0.401518
v -1.421507 -0.570749 0.538570
v -1.421507 1.205124 0.538570
v -1.983977 -0.215518 0.347682
v -1.983977 1.382740 0.302664
v -1.998905 -0.215518 0.439716
v -1.998905 1.382740 0.439716
v -2.415197 0.228522 0.155467
v -2.415197 1.523353 0.155467
v -2.430125 0.228522 0.292519
v -2.430125 1.523353 0.292519
v -2.890271 0.975989 -0.041259
v -2.890271 1.649164 -0.041259
v -2.905199 0.975989 0.095793
v -2.905199 1.649164 0.095793
v -3.094918 1.479233 -0.162254
v -3.189933 1.730571 -0.221901
v -3.109847 1.479233 -0.025202
v -3.204861 1.730571 -0.084849
v -1.713550 -0.393134 0.387129
v -1.713550 1.293932 0.364620
v -1.728479 -0.393134 0.501673
v -1.728479 1.293932 0.501673
v -1.998905 0.797425 0.439716
v -1.421507 0.645689 0.538570
v -1.421507 0.139902 0.538570
v -1.728479 0.708407 0.501673
v -1.728479 0.277476 0.501673
v -1.406579 0.140475 0.401518
v -1.070684 0.504069 0.558832
v -1.055755 0.487454 0.436233
v -0.774381 0.111368 0.546255
v -0.774381 0.111368 0.692294
v -1.052375 0.154064 0.442333
v -1.052375 0.154064 0.565274
v -1.983977 0.803697 0.320454
v -1.713550 0.276869 0.377937
v -1.713550 0.721152 0.372814
v -1.406579 0.633753 0.401518
vt 0.453308 0.500558
vt 0.426062 0.406543
vt 0.261541 0.347996
vt 0.259329 0.408877
vt 0.649978 0.652035
vt 0.650151 0.699480
vt 0.742952 0.665264
vt 0.809533 0.641562
vt 0.814388 0.593240
vt 0.841805 0.500225
vt 0.648187 0.592606
vt 0.129327 0.000225
vt 0.113890 0.002089
vt 0.062175 0.084130
vt 0.077802 0.083445
vt 0.108674 0.883936
vt 0.093042 0.884488
vt 0.113813 0.940204
vt 0.129327 0.941246
vt 0.650684 0.735532
vt 0.714487 0.712023
vt 0.045382 0.129712
vt 0.061009 0.129027
vt 0.086759 0.841842
vt 0.071127 0.842395
vt 0.421131 0.358222
vt 0.353834 0.336480
vt 0.261641 0.300547
vt 0.075999 0.807418
vt 0.065530 0.764603
vt 0.049898 0.765155
vt 0.060367 0.807971
vt 0.039573 0.162658
vt 0.050993 0.162617
vt 0.429786 0.324260
vt 0.361021 0.302199
vt 0.655043 0.816686
vt 0.656350 0.850033
vt 0.718013 0.827259
vt 0.716095 0.794392
vt 0.453308 0.288537
vt 0.377417 0.261301
vt 0.652338 0.779564
vt 0.713295 0.757505
vt 0.029556 0.205667
vt 0.045183 0.204997
vt 0.028231 0.283500
vt 0.016506 0.355483
vt 0.032137 0.354930
vt 0.038810 0.283519
vt 0.029205 0.246334
vt 0.042307 0.246013
vt 0.059598 0.727850
vt 0.053356 0.695057
vt 0.037724 0.695610
vt 0.043966 0.728403
vt 0.446448 0.248001
vt 0.438235 0.211242
vt 0.330075 0.172404
vt 0.374839 0.222293
vt 0.042315 0.642726
vt 0.027474 0.585796
vt 0.011842 0.586349
vt 0.026683 0.643279
vt 0.408073 0.146176
vt 0.269819 0.096529
vt 0.267580 0.149960
vt 0.658599 0.903459
vt 0.796889 0.853877
vt 0.826581 0.787275
vt 0.664425 0.962002
vt 0.668059 0.999775
vt 0.691333 0.979926
vt 0.736321 0.936225
vt 0.347551 0.063804
vt 0.275673 0.037993
vt 0.007278 0.457289
vt 0.022910 0.456736
vt 0.016096 0.519084
vt 0.000465 0.519637
vt 0.000225 0.550224
vt 0.015857 0.549671
vt 0.302588 0.020084
vt 0.279326 0.000225
vt 0.328824 0.205768
vt 0.266307 0.183314
vt 0.263676 0.220445
vt 0.323407 0.241901
vt 0.763470 0.777121
vt 0.834884 0.751045
vt 0.841805 0.710982
vt 0.765932 0.738450
vt 0.262127 0.264488
vt 0.324390 0.286691
vt 0.817707 0.673993
vt 0.749859 0.698579
vt 0.325750 0.653499
vt 0.315228 0.641118
vt 0.300883 0.663137
vt 0.298770 0.680481
vt 0.279781 0.626310
vt 0.264536 0.633484
vt 0.345136 0.606050
vt 0.329654 0.600397
vt 0.345136 0.561926
vt 0.329754 0.564508
vt 0.306348 0.501008
vt 0.304619 0.524929
vt 0.271028 0.533098
vt 0.288276 0.540724
vt 0.259329 0.579140
vt 0.278315 0.578472
vt 0.447177 0.715551
vt 0.447177 0.501008
vt 0.431843 0.503591
vt 0.431843 0.718135
vt 0.647738 0.000225
vt 0.453758 0.091906
vt 0.455970 0.152787
vt 0.620492 0.094240
vt 0.649978 0.347965
vt 0.814388 0.406760
vt 0.809533 0.358438
vt 0.742952 0.334736
vt 0.650151 0.300520
vt 0.648187 0.407394
vt 0.841805 0.499775
vt 0.258879 0.941247
vt 0.207354 0.858026
vt 0.191727 0.857342
vt 0.243442 0.939382
vt 0.238226 0.057536
vt 0.258879 0.000225
vt 0.243365 0.001268
vt 0.222594 0.056983
vt 0.714487 0.287977
vt 0.650684 0.264468
vt 0.190561 0.812444
vt 0.174934 0.811759
vt 0.200679 0.099076
vt 0.216311 0.099629
vt 0.456070 0.200235
vt 0.548263 0.164303
vt 0.615560 0.142561
vt 0.205551 0.134053
vt 0.189919 0.133501
vt 0.179450 0.176316
vt 0.195082 0.176868
vt 0.180545 0.778855
vt 0.169125 0.778813
vt 0.555450 0.198584
vt 0.624215 0.176522
vt 0.655043 0.183314
vt 0.716095 0.205608
vt 0.718013 0.172741
vt 0.656350 0.149967
vt 0.571846 0.239482
vt 0.647738 0.212246
vt 0.713295 0.242495
vt 0.652338 0.220436
vt 0.174736 0.736474
vt 0.159108 0.735804
vt 0.157784 0.657971
vt 0.168362 0.657953
vt 0.161690 0.586541
vt 0.146058 0.585989
vt 0.158758 0.695138
vt 0.171860 0.695459
vt 0.189150 0.213621
vt 0.173518 0.213068
vt 0.167276 0.245861
vt 0.182908 0.246414
vt 0.640877 0.252781
vt 0.569268 0.278490
vt 0.524504 0.328378
vt 0.632664 0.289541
vt 0.171867 0.298745
vt 0.156235 0.298192
vt 0.141395 0.355122
vt 0.157027 0.355675
vt 0.462009 0.350822
vt 0.464248 0.404254
vt 0.602502 0.354607
vt 0.826581 0.212725
vt 0.796889 0.146123
vt 0.658599 0.096541
vt 0.664425 0.037998
vt 0.736321 0.063775
vt 0.691333 0.020074
vt 0.668059 0.000225
vt 0.470102 0.462790
vt 0.541980 0.436979
vt 0.152463 0.484735
vt 0.136831 0.484182
vt 0.145649 0.422387
vt 0.145409 0.391800
vt 0.129777 0.391247
vt 0.130017 0.421835
vt 0.473755 0.500558
vt 0.497017 0.480698
vt 0.523253 0.295015
vt 0.517836 0.258881
vt 0.458105 0.280337
vt 0.460736 0.317468
vt 0.763470 0.222879
vt 0.765932 0.261550
vt 0.841805 0.289018
vt 0.834884 0.248955
vt 0.518819 0.214091
vt 0.456556 0.236295
vt 0.749859 0.301421
vt 0.817707 0.326007
vt 0.412007 0.527989
vt 0.385027 0.501008
vt 0.387140 0.518351
vt 0.401485 0.540370
vt 0.350793 0.548004
vt 0.366038 0.555178
vt 0.415911 0.581091
vt 0.431393 0.575438
vt 0.416011 0.616980
vt 0.431393 0.619562
vt 0.392605 0.680481
vt 0.390876 0.656559
vt 0.374533 0.640764
vt 0.357285 0.648390
vt 0.364572 0.603016
vt 0.345586 0.602348
vn 0.6365 0.0186 0.7711
vn 0.5892 -0.0124 0.8079
vn 0.5215 0.1362 0.8423
vn 0.5708 0.1527 0.8068
vn -0.5739 0.0127 -0.8188
vn -0.4588 0.1015 -0.8827
vn -0.3657 -0.0110 -0.9307
vn -0.3930 -0.1269 -0.9107
vn -0.5031 -0.1391 -0.8530
vn -0.5499 -0.1590 -0.8200
vn -0.6206 -0.0186 -0.7839
vn -0.5739 0.0128 -0.8188
vn -0.5498 -0.1590 -0.8200
vn 0.5893 -0.0124 0.8078
vn -0.5738 0.0128 -0.8189
vn -0.6207 -0.0186 -0.7838
vn 0.5708 0.1526 0.8068
vn -0.4588 0.1014 -0.8827
vn -0.3012 0.2196 -0.9279
vn -0.0721 -0.1861 -0.9799
vn -0.3929 -0.1269 -0.9108
vn 0.4797 -0.0978 0.8720
vn 0.5892 -0.0125 0.8079
vn 0.5216 0.1362 0.8423
vn 0.3907 0.1197 0.9127
vn -0.4589 0.1014 -0.8827
vn 0.4797 -0.0978 0.8719
vn 0.4687 0.0016 0.8834
vn 0.3906 0.1197 0.9127
vn 0.5214 0.1361 0.8424
vn 0.1792 0.1790 0.9674
vn 0.0490 0.2167 0.9750
vn -0.1851 0.2427 -0.9523
vn -0.3013 0.2196 -0.9279
vn -0.2326 -0.1856 -0.9547
vn 0.2022 -0.1830 0.9621
vn 0.4798 -0.0977 0.8719
vn 0.1791 0.1790 0.9674
vn 0.2022 -0.1829 0.9621
vn 0.2092 0.1876 0.9597
vn -0.2158 0.2195 -0.9514
vn -0.3621 0.1027 -0.9265
vn -0.3375 -0.0176 -0.9412
vn -0.0868 -0.2317 -0.9689
vn 0.1087 -0.1799 0.9777
vn 0.0483 0.1840 0.9817
vn -0.1940 0.2397 -0.9513
vn -0.0503 -0.2152 -0.9753
vn -0.0687 -0.1831 -0.9807
vn -0.2306 -0.1069 -0.9672
vn -0.2436 -0.1126 -0.9633
vn 0.4602 -0.0986 0.8823
vn 0.3676 -0.0885 0.9258
vn -0.0194 -0.1675 -0.9857
vn -0.2307 -0.1070 -0.9671
vn 0.3675 -0.0887 0.9258
vn 0.2600 -0.1486 0.9541
vn 0.0950 0.2318 0.9681
vn 0.2652 0.1209 0.9566
vn -0.2157 0.2195 -0.9515
vn 0.2599 -0.1487 0.9541
vn 0.3675 -0.0886 0.9258
vn 0.2375 -0.0006 0.9714
vn -0.0080 0.1626 0.9867
vn 0.3180 0.1112 0.9415
vn 0.3611 0.1790 0.9152
vn -0.4398 0.1732 -0.8812
vn -0.3949 0.1005 -0.9132
vn 0.2653 0.1209 0.9566
vn 0.3181 0.1112 0.9415
vn -0.3950 0.1005 -0.9132
vn -0.3621 0.1027 -0.9264
vn -0.2435 -0.1126 -0.9633
vn -0.2306 -0.1069 -0.9671
vn -0.3262 0.2552 -0.9102
vn 0.3280 -0.3411 -0.8809
vn -0.1380 -0.1631 -0.9769
vn 0.4601 -0.0986 0.8824
vn 0.6054 -0.1386 0.7838
vn 0.3611 0.1791 0.9152
vn -0.1380 -0.1630 -0.9769
vn -0.2435 -0.1127 -0.9633
vn -0.1379 -0.1629 -0.9770
vn 0.6054 -0.1386 0.7837
vn 0.4601 -0.0987 0.8824
vn 0.8516 -0.2249 0.4735
vn 0.3280 -0.3411 -0.8810
vn -0.3262 0.2551 -0.9102
vn 0.6275 0.2249 0.7454
vn 0.3280 -0.3412 -0.8809
vn 0.6054 -0.1387 0.7837
vn 0.3610 0.1790 0.9152
vn 0.6275 0.2249 0.7455
vn -0.4397 0.1732 -0.8813
vn 0.8517 -0.2248 0.4734
vn -0.0080 0.1627 0.9866
vn 0.0440 0.2153 0.9756
vn -0.0686 -0.1831 -0.9807
vn -0.0138 -0.1639 -0.9864
vn 0.1086 -0.1799 0.9777
vn -0.1939 0.2397 -0.9513
vn -0.0868 -0.2318 -0.9689
vn -0.0504 -0.2151 -0.9753
vn 0.2237 -0.2186 0.9498
vn 0.1928 -0.2385 0.9518
vn -0.2826 0.1497 -0.9475
vn -0.0138 -0.1638 -0.9864
vn -0.1294 0.1842 -0.9743
vn 0.0489 0.2167 0.9750
vn 0.3898 -0.2145 0.8956
vn -0.2253 0.1881 -0.9560
vn -0.3375 -0.0177 -0.9412
vn -0.2826 0.1496 -0.9475
vn -0.2253 0.1882 -0.9560
vn -0.3930 -0.1268 -0.9108
vn -0.2254 0.1881 -0.9559
vn 0.4688 0.0016 0.8833
vn 0.4687 0.0016 0.8833
vn -0.3656 -0.0111 -0.9307
vn -0.0722 -0.1862 -0.9799
vn 0.3898 -0.2146 0.8955
vn -0.2253 0.1881 -0.9559
vn -0.1295 0.1842 -0.9743
vn -0.0081 0.1627 0.9866
vn -0.2825 0.1497 -0.9475
vn -0.3375 -0.0177 -0.9411
vn 0.2374 -0.0006 0.9714
vn 0.2236 -0.2186 0.9498
vn -0.0867 -0.2317 -0.9689
vn -0.0502 -0.2151 -0.9753
vn -0.0503 -0.2151 -0.9753
vn 0.1927 -0.2385 0.9518
vn 0.3899 -0.2145 0.8955
vn -0.0722 -0.1861 -0.9799
vn 1.0000 0.0000 0.0000
vn -0.6365 0.0186 0.7711
vn -0.5708 0.1527 0.8068
vn -0.5215 0.1362 0.8423
vn -0.5892 -0.0124 0.8079
vn 0.5739 0.0127 -0.8188
vn 0.5031 -0.1391 -0.8530
vn 0.3930 -0.1269 -0.9107
vn 0.3657 -0.0110 -0.9307
vn 0.4577 0.1015 -0.8833
vn 0.5739 0.0128 -0.8188
vn 0.6206 -0.0186 -0.7839
vn 0.5499 -0.1590 -0.8200
vn -0.5893 -0.0124 0.8078
vn 0.5498 -0.1590 -0.8200
vn -0.5708 0.1526 0.8068
vn 0.6207 -0.0186 -0.7838
vn 0.5738 0.0128 -0.8189
vn 0.4588 0.1014 -0.8827
vn 0.0721 -0.1861 -0.9799
vn 0.3012 0.2196 -0.9279
vn -0.5892 -0.0125 0.8079
vn -0.4797 -0.0978 0.8720
vn 0.3929 -0.1269 -0.9108
vn -0.5216 0.1362 0.8423
vn 0.4589 0.1014 -0.8827
vn -0.3907 0.1197 0.9127
vn -0.5214 0.1361 0.8424
vn -0.3906 0.1197 0.9127
vn -0.4687 0.0016 0.8834
vn -0.4797 -0.0978 0.8719
vn -0.1792 0.1790 0.9674
vn 0.3013 0.2196 -0.9279
vn 0.1940 0.2397 -0.9513
vn -0.0490 0.2167 0.9750
vn -0.4798 -0.0977 0.8719
vn -0.2022 -0.1830 0.9621
vn 0.2326 -0.1856 -0.9547
vn -0.1791 0.1790 0.9674
vn -0.2092 0.1876 0.9597
vn -0.2022 -0.1829 0.9621
vn 0.2158 0.2195 -0.9514
vn 0.0868 -0.2317 -0.9689
vn 0.3375 -0.0176 -0.9412
vn 0.3621 0.1027 -0.9265
vn -0.0483 0.1840 0.9817
vn -0.1087 -0.1799 0.9777
vn 0.0503 -0.2152 -0.9753
vn 0.0687 -0.1831 -0.9807
vn 0.2306 -0.1069 -0.9672
vn -0.3675 -0.0886 0.9258
vn -0.4602 -0.0986 0.8823
vn 0.2436 -0.1126 -0.9633
vn 0.0138 -0.1638 -0.9864
vn -0.2600 -0.1486 0.9541
vn -0.3675 -0.0887 0.9258
vn 0.2307 -0.1070 -0.9671
vn -0.0950 0.2318 0.9681
vn 0.2157 0.2195 -0.9515
vn -0.2652 0.1209 0.9566
vn -0.2599 -0.1487 0.9541
vn 0.0080 0.1626 0.9867
vn -0.2375 -0.0006 0.9714
vn -0.3180 0.1112 0.9415
vn 0.3949 0.1005 -0.9132
vn 0.4398 0.1732 -0.8812
vn -0.3611 0.1790 0.9152
vn -0.2653 0.1209 0.9566
vn 0.3621 0.1027 -0.9264
vn 0.3950 0.1005 -0.9132
vn -0.3181 0.1112 0.9415
vn 0.2306 -0.1069 -0.9671
vn 0.2435 -0.1126 -0.9633
vn 0.1380 -0.1631 -0.9769
vn -0.3280 -0.3412 -0.8809
vn 0.3262 0.2552 -0.9102
vn -0.4601 -0.0986 0.8824
vn -0.3611 0.1791 0.9152
vn -0.6054 -0.1386 0.7838
vn 0.2435 -0.1127 -0.9633
vn 0.1380 -0.1630 -0.9769
vn -0.4601 -0.0987 0.8824
vn -0.6054 -0.1386 0.7837
vn 0.1379 -0.1629 -0.9770
vn -0.8516 -0.2249 0.4735
vn -0.6275 0.2249 0.7454
vn 0.3262 0.2551 -0.9102
vn -0.3280 -0.3411 -0.8810
vn -0.6054 -0.1387 0.7837
vn -0.8516 -0.2249 0.4734
vn -0.3610 0.1790 0.9152
vn 0.4397 0.1732 -0.8813
vn -0.6275 0.2249 0.7455
vn -0.8517 -0.2249 0.4734
vn 0.0080 0.1627 0.9866
vn -0.0489 0.2167 0.9750
vn 0.0686 -0.1831 -0.9807
vn -0.1087 -0.1798 0.9777
vn 0.0138 -0.1639 -0.9864
vn 0.1939 0.2397 -0.9513
vn 0.0504 -0.2151 -0.9753
vn 0.0868 -0.2318 -0.9689
vn -0.2237 -0.2186 0.9498
vn -0.1928 -0.2385 0.9518
vn 0.2826 0.1497 -0.9475
vn 0.1294 0.1842 -0.9743
vn -0.3898 -0.2145 0.8956
vn 0.1272 0.1842 -0.9746
vn 0.2253 0.1881 -0.9560
vn 0.3375 -0.0177 -0.9412
vn 0.2826 0.1496 -0.9475
vn 0.2253 0.1882 -0.9560
vn 0.3930 -0.1268 -0.9108
vn -0.4688 0.0016 0.8833
vn 0.2254 0.1881 -0.9559
vn -0.4687 0.0016 0.8833
vn -0.3898 -0.2146 0.8955
vn 0.0639 -0.1751 -0.9825
vn 0.3656 -0.0111 -0.9307
vn 0.2253 0.1881 -0.9559
vn 0.1295 0.1842 -0.9743
vn 0.2825 0.1497 -0.9475
vn 0.0081 0.1627 0.9866
vn 0.3375 -0.0177 -0.9411
vn -0.2236 -0.2186 0.9498
vn -0.2374 -0.0006 0.9714
vn 0.0867 -0.2317 -0.9689
vn 0.0502 -0.2151 -0.9753
vn -0.1833 -0.2408 0.9531
vn 0.0528 -0.2161 -0.9749
vn 0.0722 -0.1861 -0.9799
vn -0.3899 -0.2145 0.8955
vn -0.1927 -0.2385 0.9518
usemtl jokermask
s off
f 55/1/1 3/2/2 4/3/3 56/4/4
f 2/5/5 6/6/6 45/7/7 5/8/8 1/9/9
f 1/9/9 53/10/10 54/11/11 2/5/12
f 55/12/1 53/13/13 1/14/9 3/15/14
f 4/16/3 2/17/15 54/18/16 56/19/17
f 6/6/18 10/20/19 44/21/20 45/7/7
f 1/14/9 5/22/21 7/23/22 3/15/23
f 4/16/24 8/24/25 6/25/26 2/17/5
f 3/2/2 7/26/27 46/27/28 8/28/29 4/3/30
f 12/29/31 16/30/32 14/31/33 10/32/34
f 5/22/21 9/33/35 11/34/36 7/23/37
f 8/24/25 12/29/38 10/32/34 6/25/18
f 7/26/27 11/35/39 48/36/40 46/27/28
f 34/37/41 18/38/42 49/39/43 51/40/44
f 11/35/36 15/41/45 39/42/46 48/36/40
f 10/20/19 14/43/47 52/44/48 44/21/20
f 9/33/35 13/45/49 15/46/45 11/34/36
f 17/47/50 21/48/51 23/49/52 19/50/53
f 33/51/54 17/47/55 19/50/56 35/52/57
f 36/53/58 20/54/59 18/55/42 34/56/60
f 35/57/61 19/58/62 37/59/63 41/60/64
f 24/61/65 28/62/66 26/63/67 22/64/68
f 20/54/69 24/61/70 22/64/71 18/55/72
f 19/58/62 23/65/52 24/66/70 20/67/59 37/59/63
f 18/38/42 22/68/68 21/69/73 17/70/74 49/39/43
f 26/71/67 30/72/75 29/73/76 25/74/77
f 23/65/78 27/75/79 28/76/80 24/66/70
f 22/68/68 26/71/67 25/74/81 21/69/82
f 21/48/73 25/77/83 27/78/84 23/49/85
f 31/79/86 29/80/87 30/81/88 32/82/89
f 25/77/81 29/80/90 31/79/86 27/78/91
f 28/62/92 32/82/93 30/81/75 26/63/94
f 27/75/79 31/83/95 32/84/93 28/76/80
f 15/41/45 35/57/61 41/60/96 39/42/46
f 16/30/97 36/53/58 34/56/41 14/31/47
f 13/45/98 33/51/99 35/52/61 15/46/100
f 14/43/101 34/37/41 51/40/102 52/44/103
f 40/85/104 36/86/58 16/87/32 38/88/105
f 50/89/106 33/90/107 13/91/98 42/92/108
f 40/85/104 37/59/63 20/67/59 36/86/58
f 38/88/105 16/87/109 12/93/31 43/94/110
f 42/92/108 13/91/98 9/95/35 47/96/111
f 49/39/112 17/70/50 33/90/107 50/89/113
f 47/96/114 9/95/35 5/8/115 45/7/7
f 43/94/110 12/93/31 8/28/29 46/27/28
f 48/97/40 47/98/116 45/99/7 46/100/117
f 46/100/118 45/99/119 44/101/120 43/102/121
f 47/98/122 48/97/40 39/103/46 42/104/123
f 42/104/108 39/103/46 41/105/124 50/106/125
f 37/107/63 49/108/126 50/106/106 41/105/96
f 49/108/112 37/107/127 40/109/128 51/110/44
f 51/110/129 40/109/128 38/111/105 52/112/130
f 52/112/131 38/111/132 43/102/133 44/101/134
f 53/113/135 54/114/135 56/115/135 55/116/135
f 55/117/136 56/118/137 60/119/138 59/120/139
f 58/121/140 57/122/141 61/123/142 101/124/143 62/125/144
f 57/122/141 58/121/145 54/126/146 53/127/147
f 55/128/136 59/129/148 57/130/141 53/131/149
f 60/132/138 56/133/150 54/134/151 58/135/152
f 62/125/153 101/124/143 100/136/154 66/137/155
f 57/130/141 59/129/156 63/138/157 61/139/158
f 60/132/159 58/135/140 62/140/160 64/141/161
f 59/120/139 60/119/162 64/142/163 102/143/164 63/144/165
f 68/145/166 66/146/167 70/147/168 72/148/169
f 61/139/158 63/138/170 67/149/171 65/150/172
f 64/141/161 62/140/153 66/146/167 68/145/173
f 63/144/165 102/143/164 104/151/174 67/152/175
f 90/153/176 107/154/177 105/155/178 74/156/179
f 67/152/171 104/151/174 95/157/180 71/158/181
f 66/137/155 100/136/154 108/159/182 70/160/168
f 65/150/172 67/149/171 71/161/181 69/162/183
f 73/163/184 75/164/185 79/165/186 77/166/187
f 89/167/188 91/168/189 75/164/190 73/163/191
f 92/169/192 90/170/193 74/171/179 76/172/194
f 91/173/195 97/174/196 93/175/197 75/176/185
f 80/177/198 78/178/199 82/179/200 84/180/201
f 76/172/202 74/171/203 78/178/204 80/177/205
f 75/176/185 93/175/197 76/181/194 80/182/205 79/183/186
f 74/156/179 105/155/178 73/184/206 77/185/207 78/186/199
f 82/187/200 81/188/208 85/189/209 86/190/210
f 79/183/211 80/182/205 84/191/212 83/192/213
f 78/186/199 77/185/214 81/188/215 82/187/200
f 77/166/207 79/165/216 83/193/217 81/194/218
f 87/195/219 88/196/220 86/197/221 85/198/222
f 81/194/215 83/193/223 87/195/224 85/198/209
f 84/180/225 82/179/226 86/197/210 88/196/227
f 83/192/213 84/191/212 88/199/227 87/200/228
f 71/158/181 95/157/180 97/174/229 91/173/195
f 72/148/230 70/147/168 90/170/176 92/169/192
f 69/162/231 71/161/232 91/168/195 89/167/233
f 70/160/234 108/159/235 107/154/236 90/153/176
f 96/201/237 94/202/238 72/203/169 92/204/192
f 106/205/239 98/206/240 69/207/231 89/208/188
f 96/201/237 92/204/192 76/181/194 93/175/197
f 94/202/238 99/209/241 68/210/166 72/203/230
f 98/206/242 103/211/243 65/212/172 69/207/231
f 105/155/244 106/205/245 89/208/188 73/184/184
f 103/211/246 101/124/143 61/123/247 65/212/172
f 99/209/241 102/143/164 64/142/163 68/210/166
f 104/213/174 102/214/248 101/215/143 103/216/249
f 102/214/250 99/217/251 100/218/252 101/215/253
f 103/216/254 98/219/255 95/220/180 104/213/174
f 98/219/240 106/221/256 97/222/257 95/220/180
f 93/223/197 97/222/229 106/221/239 105/224/258
f 105/224/244 107/225/177 96/226/259 93/223/260
f 107/225/261 108/227/262 94/228/263 96/226/259
f 108/227/264 100/218/265 99/217/266 94/228/267
