# Blender 4.2.2 LTS
# www.blender.org
mtllib CAJA_CARTON.mtl
o Box.001
v 0.323997 0.647995 -0.323997
v 0.241721 0.000000 -0.241721
v 0.323997 0.647995 0.323997
v 0.241721 0.000000 0.241721
v -0.323997 0.647995 -0.323997
v -0.241721 0.000000 -0.241721
v -0.323997 0.647995 0.323997
v -0.241721 0.000000 0.241721
v 0.323402 0.506907 -0.323402
v 0.327229 0.218221 -0.327166
v -0.327168 0.218221 0.327231
v -0.323402 0.506907 0.323402
v 0.323402 0.506907 0.323402
v 0.327229 0.218221 0.327231
v -0.323402 0.506907 -0.323402
v -0.324783 0.218221 -0.330293
v -0.323997 0.000000 -0.323997
v -0.323997 0.000000 0.323997
v 0.323997 0.000000 -0.323997
v 0.323997 0.000000 0.323997
vn -0.0000 1.0000 -0.0000
vn -0.0000 0.0045 1.0000
vn -0.0000 -0.0042 1.0000
vn -1.0000 0.0024 -0.0009
vn -1.0000 -0.0042 -0.0000
vn 1.0000 0.0045 -0.0000
vn 1.0000 -0.0042 -0.0000
vn 0.0012 0.0071 -1.0000
vn -0.0000 -0.0042 -1.0000
vn 0.0012 0.0072 -1.0000
vn 0.0024 -0.0217 -0.9998
vn 0.0024 -0.0016 -1.0000
vn 0.9999 -0.0148 -0.0000
vn 1.0000 -0.0008 -0.0000
vn -1.0000 -0.0091 -0.0018
vn -1.0000 -0.0001 -0.0018
vn -0.0000 -0.0148 0.9999
vn -0.0000 -0.0008 1.0000
vn -0.0000 -1.0000 -0.0000
vt 0.666627 0.667745
vt 0.666627 0.998094
vt 0.336278 0.998094
vt 0.336278 0.667745
vt 0.073867 0.664635
vt 0.001906 0.664635
vt 0.001906 0.333470
vt 0.073867 0.333470
vt 0.001906 0.001906
vt 0.073867 0.001906
vt 0.408239 0.333071
vt 0.336278 0.333071
vt 0.336278 0.001906
vt 0.408239 0.001906
vt 0.408240 0.663932
vt 0.336278 0.663932
vt 0.666838 0.663932
vt 0.555509 0.663932
vt 0.555509 0.333071
vt 0.666838 0.333071
vt 0.555509 0.001906
vt 0.666838 0.001906
vt 0.332466 0.333470
vt 0.221137 0.333470
vt 0.221137 0.001906
vt 0.332466 0.001906
vt 0.332466 0.664635
vt 0.221137 0.664635
vt 0.670650 0.206907
vt 0.670650 0.001906
vt 0.712814 0.001906
vt 0.712814 0.206907
vt 0.670650 0.411907
vt 0.712814 0.411907
vt 0.670650 0.616907
vt 0.712814 0.616907
s 1
f 1/1/1 5/2/1 7/3/1 3/4/1
f 13/5/2 3/6/3 7/7/3 12/8/2
f 12/8/4 7/7/5 5/9/5 15/10/4
f 9/11/6 1/12/7 3/13/7 13/14/6
f 15/15/8 5/16/9 1/12/9 9/11/10
f 17/17/11 16/18/12 10/19/12 19/20/11
f 16/18/12 15/15/8 9/11/10 10/19/12
f 19/20/13 10/19/14 14/21/14 20/22/13
f 10/19/14 9/11/6 13/14/6 14/21/14
f 18/23/15 11/24/16 16/25/16 17/26/15
f 11/24/16 12/8/4 15/10/4 16/25/16
f 20/27/17 14/28/18 11/24/18 18/23/17
f 14/28/18 13/5/2 12/8/2 11/24/18
f 6/29/19 8/30/19 18/31/19 17/32/19
f 2/33/19 6/29/19 17/32/19 19/34/19
f 8/30/19 4/35/19 20/36/19 18/31/19
f 4/35/19 2/33/19 19/34/19 20/36/19
